<?xml version="1.0" standalone="no"?>
<!DOCTYPE svg PUBLIC "-//W3C//DTD SVG 20010904//EN"
 "http://www.w3.org/TR/2001/REC-SVG-20010904/DTD/svg10.dtd">
<svg version="1.0" xmlns="http://www.w3.org/2000/svg"
 width="1147.000000pt" height="248.000000pt" viewBox="0 0 1147.000000 248.000000"
 preserveAspectRatio="xMidYMid meet">

<g transform="translate(0.000000,248.000000) scale(0.100000,-0.100000)"
fill="#000000" stroke="none">
<path d="M1476 2398 c-27 -46 -64 -105 -81 -133 -29 -44 -250 -404 -1033
-1680 -118 -192 -243 -396 -279 -452 -35 -57 -66 -110 -69 -118 -5 -13 51 -15
482 -15 l489 0 71 118 c39 64 143 234 231 377 88 143 180 294 205 335 43 70
143 235 443 725 67 110 184 301 260 425 76 124 175 287 221 363 l83 137 -487
0 -487 0 -49 -82z"/>
<path d="M2769 2443 c-32 -53 -242 -394 -464 -753 -104 -168 -224 -361 -266
-430 -42 -69 -172 -280 -289 -470 -436 -707 -480 -779 -480 -784 0 -4 230 -5
512 -4 l512 3 94 155 c283 469 958 1588 1194 1980 105 173 195 321 200 328 8
9 -91 12 -490 12 l-500 0 -23 -37z"/>
<path d="M4022 2448 c-25 -44 -972 -1581 -1122 -1823 -187 -303 -356 -578
-369 -602 l-12 -23 483 0 483 0 355 577 c195 317 380 618 411 667 30 50 116
190 191 311 196 318 560 909 565 918 2 4 -214 7 -480 7 l-485 0 -20 -32z"/>
<path d="M5201 2392 c-154 -250 -263 -427 -516 -837 -404 -654 -570 -923 -774
-1255 l-182 -295 518 -3 c462 -2 519 -1 530 14 6 8 123 204 260 434 l248 418
3 -434 2 -434 472 2 472 3 234 390 c128 215 258 433 289 485 89 150 913 1591
913 1596 0 2 -195 4 -432 4 l-433 -1 -254 -409 c-140 -226 -258 -410 -263
-410 -4 0 -8 185 -8 410 l0 410 -512 0 -513 0 -54 -88z"/>
<path d="M7939 2393 c-29 -49 -67 -110 -84 -138 -27 -41 -851 -1382 -1181
-1920 -50 -82 -117 -190 -147 -240 l-56 -90 482 -3 c265 -1 487 0 493 2 5 2
40 53 76 112 36 60 137 226 225 369 87 143 180 294 205 335 43 70 143 235 443
725 67 110 184 301 260 425 202 329 305 500 305 506 0 2 -218 4 -484 4 l-485
0 -52 -87z"/>
<path d="M9231 2437 c-13 -23 -70 -116 -126 -207 -56 -91 -180 -291 -275 -445
-95 -154 -201 -325 -235 -380 -34 -55 -106 -172 -160 -260 -144 -234 -676
-1096 -693 -1122 l-14 -23 515 0 515 0 79 133 c44 72 165 274 270 447 298 493
728 1205 935 1550 104 173 194 319 199 324 5 6 9 14 9 18 0 4 -224 8 -497 8
l-498 0 -24 -43z"/>
<path d="M10484 2442 c-11 -20 -279 -455 -594 -967 -541 -878 -756 -1227 -856
-1391 -24 -39 -44 -74 -44 -78 0 -3 217 -5 482 -4 l481 3 364 590 c200 325
379 615 397 645 18 30 140 228 271 440 375 607 485 787 485 794 0 3 -217 6
-482 6 l-483 0 -21 -38z"/>
</g>
</svg>
