<?xml version="1.0" standalone="no"?>
<!DOCTYPE svg PUBLIC "-//W3C//DTD SVG 20010904//EN"
 "http://www.w3.org/TR/2001/REC-SVG-20010904/DTD/svg10.dtd">
<svg version="1.0" xmlns="http://www.w3.org/2000/svg"
 width="1300.000000pt" height="1300.000000pt" viewBox="0 0 1300.000000 1300.000000"
 preserveAspectRatio="xMidYMid meet">

<g transform="translate(0.000000,1300.000000) scale(0.100000,-0.100000)"
fill="#000000" stroke="none">
<path d="M4322 12258 c-812 -2227 -2175 -5962 -3179 -8708 l-1138 -3115 -3
-218 -3 -217 197 2 197 3 2363 6475 c1300 3561 2367 6485 2370 6498 l6 22
-269 0 -270 0 -271 -742z"/>
<path d="M7107 12958 c-12 -35 -4709 -12904 -4724 -12946 -4 -10 51 -12 267
-10 l273 3 851 2332 851 2332 3 -2335 2 -2334 523 0 522 0 2340 6412 c1287
3526 2354 6451 2372 6500 l32 88 -272 0 -272 0 -875 -2399 -875 -2399 -3 2399
-2 2399 -499 0 -499 0 -15 -42z m267 -6809 c-129 -354 -415 -1134 -634 -1734
-378 -1034 -505 -1378 -528 -1435 -5 -14 -11 -29 -12 -35 -1 -5 -7 -19 -13
-30 -7 -11 -12 -24 -13 -30 -2 -27 -17 -65 -25 -65 -5 0 -8 -3 -7 -8 5 -16
-12 -73 -20 -68 -5 3 -8 -5 -8 -17 1 -12 -4 -21 -9 -20 -6 1 -12 -6 -13 -15
-5 -47 -9 -64 -19 -70 -5 -4 -9 -17 -8 -29 1 -12 -4 -24 -12 -27 -7 -3 -13
-10 -13 -16 0 -6 5 -8 11 -4 7 4 4 -7 -7 -25 -10 -17 -22 -31 -26 -31 -4 0 -8
-5 -8 -11 0 -5 6 -7 13 -3 8 5 8 3 -2 -9 -7 -9 -18 -14 -25 -10 -6 4 -5 -1 3
-10 12 -15 11 -17 -5 -17 -16 0 -17 -2 -4 -10 13 -9 13 -12 -2 -24 -10 -7 -18
-18 -18 -24 0 -6 -5 -23 -12 -39 -6 -15 -11 -31 -10 -35 1 -5 -2 -8 -6 -8 -4
0 -8 -9 -9 -21 -1 -12 -10 -27 -19 -33 -12 -9 -14 -15 -5 -20 8 -5 6 -15 -9
-36 -11 -15 -17 -35 -14 -44 3 -9 1 -16 -6 -16 -6 0 -8 -4 -5 -10 3 -5 -5 -21
-19 -34 -14 -13 -26 -27 -26 -32 0 -5 5 -2 10 6 8 12 10 13 10 1 0 -8 -7 -22
-16 -32 -9 -10 -17 -37 -18 -59 -1 -24 -8 -45 -17 -51 -12 -7 -12 -9 1 -9 9 0
11 -3 5 -8 -13 -9 -47 -84 -44 -98 3 -18 -3 -49 -8 -36 -2 6 -9 12 -14 12 -6
0 -5 -8 1 -20 8 -14 8 -20 0 -20 -6 0 -8 -5 -5 -10 3 -6 -1 -18 -10 -27 -9 -9
-14 -24 -12 -34 3 -11 1 -19 -4 -19 -5 0 -9 -10 -9 -22 0 -12 -8 -30 -17 -41
-10 -11 -12 -17 -5 -13 16 9 15 6 -5 -35 -10 -19 -19 -43 -20 -54 -2 -11 -6
-27 -10 -35 -3 -8 -5 -21 -4 -27 1 -7 -3 -13 -9 -13 -6 0 -8 -4 -5 -10 3 -5 1
-10 -4 -10 -6 0 -10 -3 -10 -7 1 -5 0 -12 -1 -18 -1 -5 -3 -14 -4 -20 -6 -33
-93 -282 -299 -847 l-162 -447 -3 3018 -2 3018 734 2009 c404 1105 833 2279
953 2609 121 330 346 945 499 1367 l279 767 3 -3018 2 -3017 -236 -645z"/>
<path d="M12632 12973 c-8 -25 -4717 -12928 -4730 -12961 -3 -10 52 -12 269
-10 l273 3 211 580 c533 1459 1113 3047 1550 4245 262 718 973 2666 1580 4330
607 1664 1128 3094 1159 3178 l56 153 0 254 0 255 -179 0 -179 0 -10 -27z"/>
</g>
</svg>
